<svg xmlns="http://www.w3.org/2000/svg" xmlns:xlink="http://www.w3.org/1999/xlink" width="500" zoomAndPan="magnify" viewBox="0 0 375 374.999991" height="500" preserveAspectRatio="xMidYMid meet" version="1.0"><defs><g/></defs><g fill="#ff00ff" fill-opacity="1"><g transform="translate(51.405769, 290.127877)"><g><path d="M 19.59375 32.375 L 19.59375 -238.890625 L 105.03125 -222.03125 L 105.03125 -214.140625 L 58.765625 -203.25 L 58.765625 -3.265625 L 105.03125 7.078125 L 105.03125 15.234375 Z M 19.59375 32.375 "/></g></g></g><g fill="#ff00ff" fill-opacity="1"><g transform="translate(222.552449, 290.127877)"><g><path d="M 4.078125 15.234375 L 4.078125 7.078125 L 50.34375 -3.265625 L 50.34375 -203.25 L 4.078125 -214.140625 L 4.078125 -222.03125 L 89.515625 -238.890625 L 89.515625 32.375 Z M 4.078125 15.234375 "/></g></g></g><g fill="#00ffff" fill-opacity="1"><g transform="translate(43.583057, 290.127877)"><g><path d="M 19.59375 32.375 L 19.59375 -238.890625 L 105.03125 -222.03125 L 105.03125 -214.140625 L 58.765625 -203.25 L 58.765625 -3.265625 L 105.03125 7.078125 L 105.03125 15.234375 Z M 19.59375 32.375 "/></g></g></g><g fill="#00ffff" fill-opacity="1"><g transform="translate(214.729737, 290.127877)"><g><path d="M 4.078125 15.234375 L 4.078125 7.078125 L 50.34375 -3.265625 L 50.34375 -203.25 L 4.078125 -214.140625 L 4.078125 -222.03125 L 89.515625 -238.890625 L 89.515625 32.375 Z M 4.078125 15.234375 "/></g></g></g><g fill="#000000" fill-opacity="1"><g transform="translate(47.494413, 290.127877)"><g><path d="M 19.59375 32.375 L 19.59375 -238.890625 L 105.03125 -222.03125 L 105.03125 -214.140625 L 58.765625 -203.25 L 58.765625 -3.265625 L 105.03125 7.078125 L 105.03125 15.234375 Z M 19.59375 32.375 "/></g></g></g><g fill="#000000" fill-opacity="1"><g transform="translate(218.641093, 290.127877)"><g><path d="M 4.078125 15.234375 L 4.078125 7.078125 L 50.34375 -3.265625 L 50.34375 -203.25 L 4.078125 -214.140625 L 4.078125 -222.03125 L 89.515625 -238.890625 L 89.515625 32.375 Z M 4.078125 15.234375 "/></g></g></g></svg>