<?xml version="1.0" standalone="no"?><!DOCTYPE svg PUBLIC "-//W3C//DTD SVG 1.1//EN" "http://www.w3.org/Graphics/SVG/1.1/DTD/svg11.dtd"><svg t="1708416152947" class="icon" viewBox="0 0 1024 1024" version="1.1" xmlns="http://www.w3.org/2000/svg" p-id="8789" xmlns:xlink="http://www.w3.org/1999/xlink" width="20" height="20"><path d="M309.333333 192h149.333334a32 32 0 0 1 4.309333 63.701333L458.666667 256h-149.333334a95.957333 95.957333 0 0 0-95.658666 87.936L213.333333 350.72l0.128 363.946667A96 96 0 0 0 302.933333 810.453333l6.570667 0.213334 362.581333-0.512a96 96 0 0 0 95.658667-89.429334l0.213333-6.570666v-149.589334a32 32 0 0 1 63.701334-4.352l0.298666 4.352v149.589334a160 160 0 0 1-151.296 159.786666l-8.533333 0.213334-362.453333 0.512-8.661334-0.213334a160 160 0 0 1-151.338666-151.253333l-0.213334-8.533333-0.085333-362.538667 0.170667-8.661333a160 160 0 0 1 151.296-151.253334l8.533333-0.213333h149.290667-149.333334zM597.504 128l258.133333 0.042667 4.266667 0.426666 3.498667 0.725334 4.565333 1.365333 5.077333 2.218667 2.261334 1.28c11.093333 6.613333 18.858667 18.090667 20.48 31.488l0.298666 5.12v256.298666a42.666667 42.666667 0 0 1-85.077333 4.992l-0.256-4.992L810.666667 273.621333l-268.544 268.544a42.666667 42.666667 0 0 1-56.32 3.541334l-4.010667-3.541334a42.666667 42.666667 0 0 1-3.541333-56.32l3.541333-4.010666L750.293333 213.333333h-152.789333a42.666667 42.666667 0 0 1-42.368-37.674666L554.837333 170.666667a42.666667 42.666667 0 0 1 42.666667-42.666667z" fill="#212121" p-id="8790"></path></svg>