<?xml version="1.0" standalone="no"?><!DOCTYPE svg PUBLIC "-//W3C//DTD SVG 1.1//EN" "http://www.w3.org/Graphics/SVG/1.1/DTD/svg11.dtd"><svg t="1708447898447" class="icon" viewBox="0 0 1024 1024" version="1.1" xmlns="http://www.w3.org/2000/svg" p-id="4227" xmlns:xlink="http://www.w3.org/1999/xlink" width="30" height="30"><path d="M629.650286 476.635429h194.998857c54.857143 0 81.846857-27.428571 81.846857-83.986286V201.069714c0-56.576-26.989714-83.565714-81.846857-83.565714H629.650286c-54.436571 0-81.865143 26.989714-81.865143 83.565714v191.579429c0 56.557714 27.428571 83.986286 81.865143 83.986286z m-430.299429 0H394.788571c54.418286 0 81.846857-27.428571 81.846858-83.986286V201.069714c0-56.576-27.428571-83.565714-81.846858-83.565714H199.350857c-54.418286 0-81.846857 26.989714-81.846857 83.565714v191.579429c0 56.557714 27.428571 83.986286 81.846857 83.986286z m0.859429-60.416c-14.994286 0-22.290286-7.716571-22.290286-23.588572V201.088c0-15.433143 7.296-23.149714 22.308571-23.149714h193.28c14.994286 0 22.710857 7.716571 22.710858 23.149714v191.579429c0 15.853714-7.716571 23.570286-22.710858 23.570285z m430.281143 0c-14.994286 0-22.272-7.716571-22.272-23.588572V201.088c0-15.433143 7.277714-23.149714 22.272-23.149714h193.718857c14.573714 0 21.869714 7.716571 21.869714 23.149714v191.579429c0 15.853714-7.296 23.570286-21.869714 23.570285z m-370.285715-74.148572h73.289143c6.436571 0 8.996571-2.56 8.996572-9.856v-71.131428c0-6.875429-2.56-9.435429-8.996572-9.435429H260.205714c-6.418286 0-8.137143 2.56-8.137143 9.417143v71.149714c0 7.277714 1.718857 9.874286 8.137143 9.874286z m432.859429 0h72.868571c6.418286 0 8.996571-2.56 8.996572-9.856v-71.131428c0-6.875429-2.56-9.435429-8.996572-9.435429h-72.868571c-6.418286 0-8.557714 2.56-8.557714 9.417143v71.149714c0 7.277714 2.139429 9.874286 8.557714 9.874286z m-493.714286 564.425143H394.788571c54.418286 0 81.846857-26.989714 81.846858-83.565714v-192c0-56.137143-27.428571-83.565714-81.846858-83.565715H199.350857c-54.418286 0-81.846857 27.428571-81.846857 83.565715v192c0 56.576 27.428571 83.565714 81.846857 83.565714z m377.142857-248.137143h73.289143c6.436571 0 8.996571-2.56 8.996572-9.874286v-71.131428c0-6.857143-2.56-9.417143-8.996572-9.417143h-73.289143c-6.418286 0-8.137143 2.56-8.137143 9.417143v71.131428c0 7.314286 1.718857 9.874286 8.137143 9.874286z m227.584 0h73.270857c6.436571 0 9.014857-2.56 9.014858-9.874286v-71.131428c0-6.857143-2.578286-9.417143-9.014858-9.417143h-73.270857c-6.436571 0-8.594286 2.56-8.594285 9.417143v71.131428c0 7.314286 2.157714 9.874286 8.594285 9.874286zM200.210286 846.08c-14.994286 0-22.290286-7.716571-22.290286-23.149714V631.350857c0-15.853714 7.296-23.570286 22.308571-23.570286h193.28c14.994286 0 22.710857 7.716571 22.710858 23.588572v191.561143c0 15.433143-7.716571 23.149714-22.710858 23.149714z m59.995428-73.728h73.289143c6.436571 0 8.996571-2.56 8.996572-10.276571v-70.710858c0-6.857143-2.56-9.435429-8.996572-9.435428H260.205714c-6.418286 0-8.137143 2.56-8.137143 9.435428v70.710858c0 7.716571 1.718857 10.276571 8.137143 10.276571z m431.158857 0h73.270858c6.436571 0 8.996571-2.56 8.996571-10.276571v-70.710858c0-6.857143-2.56-9.435429-8.996571-9.435428h-73.289143c-6.418286 0-8.137143 2.56-8.137143 9.435428v70.710858c0 7.716571 1.718857 10.276571 8.155428 10.276571z m-114.870857 113.572571h73.289143c6.436571 0 8.996571-2.56 8.996572-9.856v-71.131428c0-6.875429-2.56-9.435429-8.996572-9.435429h-73.289143c-6.418286 0-8.137143 2.56-8.137143 9.435429v71.131428c0 7.296 1.718857 9.874286 8.137143 9.874286z m227.584 0h73.270857c6.436571 0 9.014857-2.56 9.014858-9.856v-71.131428c0-6.875429-2.578286-9.435429-9.014858-9.435429h-73.270857c-6.436571 0-8.594286 2.56-8.594285 9.435429v71.131428c0 7.296 2.157714 9.874286 8.594285 9.874286z" p-id="4228"></path></svg>